<?xml version="1.0" encoding="UTF-8"?><svg id="Layer_1" xmlns="http://www.w3.org/2000/svg" viewBox="0 0 309.1 87"><defs><style>.cls-1{fill:#091f40;}</style></defs><path class="cls-1" d="m303.1,5.8c0,3.2-2.6,5.8-5.8,5.8s-5.8-2.6-5.8-5.8,2.6-5.8,5.8-5.8,5.8,2.6,5.8,5.8"/><path class="cls-1" d="m278.5,5.8c0,3.2-2.6,5.8-5.8,5.8s-5.8-2.6-5.8-5.8,2.6-5.8,5.8-5.8,5.8,2.6,5.8,5.8"/><path class="cls-1" d="m279.4,67.6l-1.2,3.8c-.3,1.1-.7,2-1,2.8-.4.8-.8,1.5-1.4,2.1-.5.6-1.2,1-2,1.4-.8.3-1.8.5-3.1.5s-1.7,0-2.5-.2c-.8-.2-1.7-.3-2.5-.4v9c2.4.4,4.9.6,7.4.6s5.1-.5,7-1.4c1.8-.9,3.3-2.1,4.6-3.7,1.2-1.5,2.3-3.3,3.1-5.3.8-2,1.7-4.1,2.6-6.3l18.9-51.2h-11.2l-12.3,36.3h-.2l-12.7-36.3h-11.7l18.4,48.4Z"/><path class="cls-1" d="m256.7,32c0-2.6-.6-4.7-1.7-6.5s-2.6-3.2-4.5-4.4c-1.8-1.1-3.9-1.9-6.2-2.4-2.3-.5-4.7-.8-7-.8s-5.3.3-7.9.8c-2.6.5-4.9,1.4-6.9,2.6-2,1.3-3.7,2.9-5,5-1.3,2.1-2.1,4.7-2.3,7.8h10.7c.2-2.6,1.3-4.6,3.3-5.8,1.9-1.3,4.4-1.9,7.4-1.9s2.2,0,3.4.2c1.2.2,2.3.5,3.2.9,1,.5,1.8,1.1,2.4,2,.7.9,1,2,1,3.4s-.4,2.7-1.2,3.5c-.8.8-1.8,1.4-3.2,1.7-1.3.4-2.9.6-4.6.8-1.8.2-3.6.4-5.5.8-2.3.3-4.5.6-6.7,1.1-2.2.5-4.2,1.2-6,2.3-1.8,1.1-3.2,2.5-4.3,4.4-1.1,1.9-1.6,4.3-1.6,7.3s.5,4.5,1.4,6.2c.9,1.8,2.1,3.3,3.7,4.4,1.5,1.2,3.3,2,5.3,2.6,2,.6,4.1.9,6.3.9s5.9-.5,9-1.4c3.1-.9,5.7-2.4,7.8-4.5.4,2.2,1.4,3.7,2.8,4.6,1.4.9,3.3,1.3,5.4,1.3s1,0,1.6,0c.6,0,1.3-.2,1.9-.3.6-.1,1.2-.3,1.8-.4.6-.2,1.1-.3,1.5-.4v-7.4c-.6.1-1.1.2-1.5.2h-1.1c-1,0-1.7-.3-2-.8-.3-.6-.5-1.5-.5-2.8v-25Zm-10.7,19.4c0,1.7-.4,3.1-1.2,4.3-.8,1.2-1.8,2.1-3.1,2.9-1.2.8-2.5,1.3-3.9,1.6-1.4.3-2.7.5-3.9.5s-2,0-3.1-.3c-1.2-.2-2.2-.5-3.2-1-1-.5-1.8-1.1-2.5-1.9-.7-.8-1-1.8-1-3s.2-2.5.7-3.5c.5-1,1.1-1.8,1.9-2.3.8-.6,1.8-1.1,2.8-1.4,1.1-.3,2.2-.6,3.3-.8,2.4-.4,4.8-.8,7.1-1,2.4-.2,4.4-.9,6-1.9v8Z"/><path class="cls-1" d="m184.5,35.7c-.9-3.4-2.4-6.4-4.4-9.1-2-2.6-4.5-4.7-7.6-6.3-3-1.6-6.5-2.4-10.3-2.4s-6.9.7-9.8,2.1c-2.9,1.4-5.3,3.2-7.4,5.6s-3.6,5.1-4.7,8.2c-1.1,3.1-1.6,6.4-1.6,9.8s.5,7.2,1.5,10.3c1,3.1,2.6,5.8,4.6,8.1,2,2.3,4.5,4,7.5,5.3,2.9,1.3,6.3,1.9,10.1,1.9s5.1-.4,7.6-1.1c2.4-.7,4.6-1.8,6.5-3.2,1.9-1.4,3.6-3.1,5-5.2,1.4-2.1,2.3-4.4,2.9-7h-10.1c-.9,2.7-2.4,4.7-4.3,6.1-1.9,1.3-4.4,2-7.6,2s-4.2-.4-5.8-1.2c-1.6-.8-3-1.8-4-3.1-1.1-1.3-1.9-2.8-2.4-4.6-.5-1.8-.8-3.6-.8-5.4h35.7c.4-3.6.2-7.2-.7-10.6m-10,3.5h-25c0-1.8.4-3.5,1.1-5.1.7-1.6,1.5-2.9,2.6-4.1,1.1-1.2,2.4-2.1,3.9-2.7,1.5-.7,3.2-1,5.1-1s3.5.4,4.9,1.1c1.5.7,2.7,1.7,3.8,2.8,1,1.2,1.8,2.5,2.4,4.1.6,1.6,1,3.2,1.1,4.9m-55.1,28.6h10.5V19.2h-10.7v28.2c0,1.9-.2,3.6-.6,5.3-.4,1.6-1.1,3-2,4.2-.9,1.2-2.2,2.1-3.7,2.8-1.5.7-3.4,1-5.6,1s-5.2-.9-6.9-2.6c-1.6-1.8-2.4-4.8-2.4-9v-29.8h-10.7v30.8c0,6.4,1.4,11.2,4.3,14.3,2.8,3.2,7.5,4.7,13.9,4.7s5.3-.7,7.9-2.2c2.6-1.5,4.6-3.4,5.9-5.9h.2v6.8Zm-54.5,0h10.7V.7h-10.7v67.1Zm-22-36v-.2c3.1-1.3,5.4-3.2,7.1-5.6,1.7-2.4,2.5-5.3,2.5-8.7,0-5.6-1.8-9.7-5.4-12.5-3.6-2.8-8.5-4.1-14.5-4.1H0v67.1h30.8c4.3,0,8-.5,11.2-1.5,3.1-1,5.7-2.3,7.7-3.9,2-1.7,3.5-3.6,4.4-5.9.9-2.3,1.4-4.7,1.4-7.4,0-4.6-1.1-8.4-3.2-11.4-2.1-3-5.3-5-9.4-5.9m-2.2-12.3c0,3-.9,5.3-2.8,6.9-1.9,1.6-4.2,2.4-7,2.4H11.7V10.3h19.2c3.2,0,5.6.7,7.3,2.1,1.7,1.4,2.5,3.8,2.5,7.1m3,28.1c0,3.4-1,6-3,7.8-2,1.8-4.7,2.8-8.3,2.8H11.7v-20.9h20.8c3.6,0,6.3.9,8.3,2.7s3,4.3,3,7.7"/><rect class="cls-1" x="193.7" y=".7" width="10.7" height="10.1"/><path class="cls-1" d="m193.7,71.4c0,2.4-.2,4.2-.7,5.4-.5,1.2-1.7,1.8-3.6,1.8s-1.1,0-1.7,0c-.6,0-1.3-.2-2-.3v8.5c.7.1,1.4.2,2.1.3.7,0,1.6,0,2.7,0,5,0,8.6-1.3,10.7-3.9,2.1-2.6,3.2-6.4,3.2-11.2V19.2h-10.7v52.2Z"/></svg>